<svg xmlns="http://www.w3.org/2000/svg" version="1.1" xmlns:xlink="http://www.w3.org/1999/xlink" xmlns:svgjs="http://svgjs.com/svgjs" width="1440" height="560" preserveAspectRatio="none" viewBox="0 0 1440 560"><g mask="url(&quot;#SvgjsMask1018&quot;)" fill="none"><rect width="1440" height="560" x="0" y="0" fill="#0e2a47"></rect><path d="M1032.06 28.16 a148.74 148.74 0 1 0 297.48 0 a148.74 148.74 0 1 0 -297.48 0z" fill="rgba(28, 83, 142, 0.4)" class="triangle-float1"></path><path d="M1134.182,560.558C1187.916,562.836,1240.719,536.519,1266.923,489.552C1292.55,443.619,1283.786,387.227,1255.7,342.755C1229.554,301.354,1183.142,280.137,1134.182,279.367C1083.661,278.573,1031.007,295.003,1005.862,338.829C980.809,382.494,994.388,435.493,1019.604,479.065C1044.765,522.541,1083.995,558.43,1134.182,560.558" fill="rgba(28, 83, 142, 0.4)" class="triangle-float3"></path><path d="M751.39 492.68 a149.78 149.78 0 1 0 299.56 0 a149.78 149.78 0 1 0 -299.56 0z" fill="rgba(28, 83, 142, 0.4)" class="triangle-float2"></path><path d="M1425.271,541.336C1461.517,543.083,1503.586,542.937,1522.505,511.971C1541.887,480.248,1526.706,440.097,1505.983,409.233C1487.855,382.234,1457.731,369.118,1425.271,367.151C1388.041,364.895,1344.912,366.377,1325.628,398.303C1305.966,430.855,1321.286,472.114,1343.024,503.318C1361.528,529.88,1392.937,539.777,1425.271,541.336" fill="rgba(28, 83, 142, 0.4)" class="triangle-float3"></path><path d="M480.13 115.81 a159.16 159.16 0 1 0 318.32 0 a159.16 159.16 0 1 0 -318.32 0z" fill="rgba(28, 83, 142, 0.4)" class="triangle-float1"></path><path d="M1230.6239119230272 493.7012527023789L1345.2914292026571 440.23091125326675 1291.821087753545 325.5633939736368 1177.1535704739151 379.0337354227489z" fill="rgba(28, 83, 142, 0.4)" class="triangle-float1"></path><path d="M49.534,105.389C64.027,106.232,79.663,101.607,86.671,88.893C93.514,76.478,87.873,61.668,80.207,49.744C73.275,38.962,62.343,31.61,49.534,31.131C35.797,30.617,21.363,35.315,14.614,47.291C7.957,59.104,12.21,73.346,19.196,84.968C25.927,96.167,36.49,104.63,49.534,105.389" fill="rgba(28, 83, 142, 0.4)" class="triangle-float2"></path><path d="M893.37,45.872C912.694,46.868,931.824,36.974,940.886,19.877C949.492,3.642,944.091,-15.645,934.179,-31.117C925.135,-45.234,910.132,-53.928,893.37,-54.288C875.914,-54.663,858.058,-48.104,849.409,-32.937C840.826,-17.884,845.203,0.247,853.644,15.38C862.36,31.005,875.502,44.951,893.37,45.872" fill="rgba(28, 83, 142, 0.4)" class="triangle-float1"></path><path d="M1377.860506231949 155.81659813378275L1336.7546405024198 229.9735429316288 1410.9115853002659 271.0794086611582 1452.0174510297952 196.92246386331215z" fill="rgba(28, 83, 142, 0.4)" class="triangle-float1"></path><path d="M480.403,573.065C508.459,573.303,532.654,554.623,546.057,529.974C558.854,506.439,556.504,479.003,544.598,455.005C530.928,427.453,511.148,398.517,480.403,397.644C448.696,396.744,423.431,422.641,409.57,451.172C397.389,476.246,402.642,504.775,416.648,528.877C430.572,552.838,452.691,572.83,480.403,573.065" fill="rgba(28, 83, 142, 0.4)" class="triangle-float3"></path><path d="M1242.1399574565128 542.3802497863079L1196.533729225161 448.87362484362546 1079.0769059268132 564.0362796619942z" fill="rgba(28, 83, 142, 0.4)" class="triangle-float2"></path><path d="M1327.9946986267225 546.7186808394556L1467.6468675714525 478.6057669812054 1399.5339537132022 338.95359803647546 1259.8817847684722 407.06651189472564z" fill="rgba(28, 83, 142, 0.4)" class="triangle-float3"></path></g><defs><mask id="SvgjsMask1018"><rect width="1440" height="560" fill="#ffffff"></rect></mask><style>
            @keyframes float1 {
                0%{transform: translate(0, 0)}
                50%{transform: translate(-10px, 0)}
                100%{transform: translate(0, 0)}
            }

            .triangle-float1 {
                animation: float1 5s infinite;
            }

            @keyframes float2 {
                0%{transform: translate(0, 0)}
                50%{transform: translate(-5px, -5px)}
                100%{transform: translate(0, 0)}
            }

            .triangle-float2 {
                animation: float2 4s infinite;
            }

            @keyframes float3 {
                0%{transform: translate(0, 0)}
                50%{transform: translate(0, -10px)}
                100%{transform: translate(0, 0)}
            }

            .triangle-float3 {
                animation: float3 6s infinite;
            }
        </style></defs></svg>