<svg xmlns="http://www.w3.org/2000/svg" version="1.1" xmlns:xlink="http://www.w3.org/1999/xlink" xmlns:svgjs="http://svgjs.com/svgjs" width="1440" height="560" preserveAspectRatio="none" viewBox="0 0 1440 560"><g mask="url(&quot;#SvgjsMask1027&quot;)" fill="none"><rect width="1440" height="560" x="0" y="0" fill="rgba(5, 15, 25, 1)"></rect><path d="M1436.092,569.059C1497.597,569.945,1554.268,531.63,1581.14,476.299C1605.287,426.58,1582.933,371.6,1555.217,323.779C1527.611,276.149,1491.138,225.203,1436.092,226.034C1381.877,226.852,1349.547,279.985,1323.037,327.283C1297.348,373.117,1275.849,424.627,1298.105,472.223C1323.616,526.779,1375.872,568.192,1436.092,569.059" fill="rgba(12, 126, 213, 0.4)" class="triangle-float2"></path><path d="M1038.88 134.85 a124.63 124.63 0 1 0 249.26 0 a124.63 124.63 0 1 0 -249.26 0z" fill="rgba(12, 126, 213, 0.4)" class="triangle-float3"></path><path d="M369.4222963819807 477.21320746133125L478.04405542004645 477.21320746133125 478.04405542004645 368.5914484232655 369.4222963819807 368.5914484232655z" fill="rgba(12, 126, 213, 0.4)" class="triangle-float3"></path><path d="M491.38,641.452C520.813,641.268,543.452,618.145,557.471,592.264C570.735,567.777,575.125,537.887,560.222,514.361C546.124,492.106,517.725,487.959,491.38,487.935C464.98,487.911,436.59,492.023,422.324,514.237C407.096,537.948,410.399,568.333,423.843,593.099C438,619.179,461.706,641.638,491.38,641.452" fill="rgba(12, 126, 213, 0.4)" class="triangle-float1"></path><path d="M-68.51 69.37 a150.84 150.84 0 1 0 301.68 0 a150.84 150.84 0 1 0 -301.68 0z" fill="rgba(12, 126, 213, 0.4)" class="triangle-float3"></path><path d="M1300.4389796200844 274.53624057438094L1419.9074087058345 340.7586721794554 1366.6614112251589 155.06781148863072z" fill="rgba(12, 126, 213, 0.4)" class="triangle-float3"></path><path d="M267.26311738993223 186.44385739569253L192.88654352054164 126.21489543251109 132.6575815573602 200.59146930190167 207.03415542675077 260.82043126508313z" fill="rgba(12, 126, 213, 0.4)" class="triangle-float3"></path><path d="M631.047,653.961C675.295,653.682,718.544,635.032,740.967,596.885C763.672,558.259,758.712,511.385,738.296,471.502C715.572,427.11,680.914,381.611,631.047,382.159C581.727,382.701,550.553,430.053,527.804,473.816C507.238,513.379,496.525,559.602,518.696,598.288C540.971,637.155,586.251,654.244,631.047,653.961" fill="rgba(12, 126, 213, 0.4)" class="triangle-float2"></path><path d="M179.34 79.77 a183.73 183.73 0 1 0 367.46 0 a183.73 183.73 0 1 0 -367.46 0z" fill="rgba(12, 126, 213, 0.4)" class="triangle-float3"></path><path d="M302.7496674875133 43.17744615357368L326.14475935201233 153.24269975330998 412.81492108724956 19.78235428907465z" fill="rgba(12, 126, 213, 0.4)" class="triangle-float3"></path><path d="M1321.383,442.261C1356.02,442.121,1382.869,413.928,1397.893,382.719C1410.974,355.545,1404.905,325.136,1390.529,298.624C1375.268,270.481,1353.394,242.131,1321.383,241.625C1288.776,241.11,1264.009,267.775,1248.348,296.379C1233.407,323.669,1229.864,355.523,1243.792,383.343C1259.374,414.467,1286.576,442.402,1321.383,442.261" fill="rgba(12, 126, 213, 0.4)" class="triangle-float2"></path><path d="M-115.27 277.88 a130.38 130.38 0 1 0 260.76 0 a130.38 130.38 0 1 0 -260.76 0z" fill="rgba(12, 126, 213, 0.4)" class="triangle-float2"></path></g><defs><mask id="SvgjsMask1027"><rect width="1440" height="560" fill="#ffffff"></rect></mask><style>
            @keyframes float1 {
                0%{transform: translate(0, 0)}
                50%{transform: translate(-10px, 0)}
                100%{transform: translate(0, 0)}
            }

            .triangle-float1 {
                animation: float1 5s infinite;
            }

            @keyframes float2 {
                0%{transform: translate(0, 0)}
                50%{transform: translate(-5px, -5px)}
                100%{transform: translate(0, 0)}
            }

            .triangle-float2 {
                animation: float2 4s infinite;
            }

            @keyframes float3 {
                0%{transform: translate(0, 0)}
                50%{transform: translate(0, -10px)}
                100%{transform: translate(0, 0)}
            }

            .triangle-float3 {
                animation: float3 6s infinite;
            }
        </style></defs></svg>