<svg xmlns="http://www.w3.org/2000/svg" version="1.1" xmlns:xlink="http://www.w3.org/1999/xlink" xmlns:svgjs="http://svgjs.com/svgjs" width="1940" height="560" preserveAspectRatio="none" viewBox="0 0 1940 560"><g mask="url(&quot;#SvgjsMask1025&quot;)" fill="none"><rect width="1940" height="560" x="0" y="0" fill="rgba(5, 19, 33, 1)"></rect><path d="M6.3 383.78L55.01 383.78L55.01 432.49L6.3 432.49z" fill="#e73635"></path><path d="M1378.82 253.93L1410.12 253.93L1410.12 284.17L1378.82 284.17z" stroke="#d3b714"></path><path d="M1546.06 164.06L1551.94 164.06L1551.94 189.54L1546.06 189.54z" fill="#e73635"></path><path d="M1230.9 554.66a49.93 49.93 0 1 0 43.56-89.86z" stroke="#037b0b"></path><path d="M1074.3 322.48 a44.31 44.31 0 1 0 88.62 0 a44.31 44.31 0 1 0 -88.62 0z" stroke="#d3b714"></path><path d="M251.73 263.76L273.92 263.76L273.92 285.95L251.73 285.95z" stroke="#037b0b"></path><path d="M775.26 34.64 a40.75 40.75 0 1 0 81.5 0 a40.75 40.75 0 1 0 -81.5 0z" fill="#037b0b"></path><path d="M1413.24 540.97L1437.35 540.97L1437.35 591.32L1413.24 591.32z" stroke="#037b0b"></path><path d="M160.27 181.37L196.52 181.37L196.52 217.62L160.27 217.62z" stroke="#e73635"></path><path d="M458.77 341.35a30.97 30.97 0 1 0-61.94 0.35z" fill="#d3b714"></path><path d="M509.06 466.46 a24.03 24.03 0 1 0 48.06 0 a24.03 24.03 0 1 0 -48.06 0z" stroke="#037b0b"></path><path d="M431.55 345.85a42.83 42.83 0 1 0-76.65-38.24z" stroke="#037b0b"></path><path d="M280.62 431.68L293.27 431.68L293.27 444.33L280.62 444.33z" fill="#e73635"></path><path d="M20.06 479.96a16.85 16.85 0 1 0-27.25 19.83z" stroke="#d3b714"></path><path d="M651 75.97a48.5 48.5 0 1 0-70.45-66.68z" stroke="#e73635"></path><path d="M1475.7 58.85L1499.29 58.85L1499.29 79.55L1475.7 79.55z" stroke="#037b0b"></path><path d="M1105.92 458.53L1114.74 458.53L1114.74 461.66L1105.92 461.66z" stroke="#e73635"></path><path d="M1552.93 210.61L1555.21 210.61L1555.21 212.89L1552.93 212.89z" fill="#e73635"></path><path d="M1330.43 62.76a30.16 30.16 0 1 0-37.24-47.46z" stroke="#e73635"></path><path d="M1668.46 375.18 a28.74 28.74 0 1 0 57.48 0 a28.74 28.74 0 1 0 -57.48 0z" fill="#037b0b"></path><path d="M1742.35 13.7 a47 47 0 1 0 94 0 a47 47 0 1 0 -94 0z" fill="#d3b714"></path><path d="M1890.85 345.58L1916.7 345.58L1916.7 371.43L1890.85 371.43z" stroke="#d3b714"></path><path d="M1108.88 368.17a54.08 54.08 0 1 0-108.15 0.39z" fill="#037b0b"></path><path d="M916.32 188.62 a34.81 34.81 0 1 0 69.62 0 a34.81 34.81 0 1 0 -69.62 0z" stroke="#e73635"></path><path d="M1859.58 191.4 a12.64 12.64 0 1 0 25.28 0 a12.64 12.64 0 1 0 -25.28 0z" fill="#037b0b"></path><path d="M1055.19 18.04 a6.82 6.82 0 1 0 13.64 0 a6.82 6.82 0 1 0 -13.64 0z" stroke="#037b0b"></path><path d="M154.68 474.98a4.06 4.06 0 1 0 7.84 2.12z" stroke="#e73635"></path><path d="M1156.59 63.7a15.63 15.63 0 1 0 11.72 28.98z" stroke="#e73635"></path><path d="M1380.61 194.67L1412.57 194.67L1412.57 233.11L1380.61 233.11z" fill="#037b0b"></path><path d="M643.61 11.57 a49.08 49.08 0 1 0 98.16 0 a49.08 49.08 0 1 0 -98.16 0z" stroke="#d3b714"></path><path d="M532.01 513.07a45.34 45.34 0 1 0 60.15 67.86z" fill="#037b0b"></path><path d="M1445.4 133.01 a39.24 39.24 0 1 0 78.48 0 a39.24 39.24 0 1 0 -78.48 0z" stroke="#037b0b"></path><path d="M1730.42 130.84a20.38 20.38 0 1 0 39.64 9.52z" fill="#037b0b"></path><path d="M611.9 490.1L644.64 490.1L644.64 522.84L611.9 522.84z" stroke="#d3b714"></path><path d="M1471.63 435.92L1517.5 435.92L1517.5 468.17L1471.63 468.17z" fill="#d3b714"></path><path d="M543.87 391.7L552.23 391.7L552.23 438.91L543.87 438.91z" stroke="#e73635"></path><path d="M1182.36 279.3a6.36 6.36 0 1 0-12.7 0.71z" stroke="#d3b714"></path><path d="M743.67 385.63a5.11 5.11 0 1 0-2.59 9.88z" fill="#037b0b"></path><path d="M812.37 356.79a33.74 33.74 0 1 0 44.62-50.63z" fill="#d3b714"></path><path d="M-11.25 48.48 a51.19 51.19 0 1 0 102.38 0 a51.19 51.19 0 1 0 -102.38 0z" fill="#e73635"></path><path d="M510.31 356.11L552.98 356.11L552.98 398.78L510.31 398.78z" fill="#d3b714"></path><path d="M518.04 105.77L571.37 105.77L571.37 128.88L518.04 128.88z" stroke="#e73635"></path><path d="M1065.16 437.6 a8.37 8.37 0 1 0 16.74 0 a8.37 8.37 0 1 0 -16.74 0z" fill="#037b0b"></path><path d="M1814.05 93.42 a17.23 17.23 0 1 0 34.46 0 a17.23 17.23 0 1 0 -34.46 0z" fill="#e73635"></path></g><defs><mask id="SvgjsMask1025"><rect width="1940" height="560" fill="#ffffff"></rect></mask></defs></svg>