<svg xmlns="http://www.w3.org/2000/svg" version="1.1" xmlns:xlink="http://www.w3.org/1999/xlink" xmlns:svgjs="http://svgjs.com/svgjs" width="1940" height="560" preserveAspectRatio="none" viewBox="0 0 1940 560"><g mask="url(&quot;#SvgjsMask1002&quot;)" fill="none"><rect width="1940" height="560" x="0" y="0" fill="#0e2a47"></rect><path d="M70.65 339.96 a46.19 46.19 0 1 0 92.38 0 a46.19 46.19 0 1 0 -92.38 0z" stroke="#037b0b"></path><path d="M-0.19 478.36 a37.81 37.81 0 1 0 75.62 0 a37.81 37.81 0 1 0 -75.62 0z" fill="#d3b714"></path><path d="M1374.25 223.53 a39.73 39.73 0 1 0 79.46 0 a39.73 39.73 0 1 0 -79.46 0z" stroke="#037b0b"></path><path d="M382.66 52.03a18.98 18.98 0 1 0 5.65-37.54z" stroke="#037b0b"></path><path d="M1806.41 130.3 a6.44 6.44 0 1 0 12.88 0 a6.44 6.44 0 1 0 -12.88 0z" stroke="#d3b714"></path><path d="M797.89 104.06a11.06 11.06 0 1 0-21.37-5.69z" stroke="#e73635"></path><path d="M1692.19 22.95 a32.1 32.1 0 1 0 64.2 0 a32.1 32.1 0 1 0 -64.2 0z" fill="#037b0b"></path><path d="M1568.16 534.77L1596.65 534.77L1596.65 563.26L1568.16 563.26z" fill="#e73635"></path><path d="M408.32 496.58L434.06 496.58L434.06 497.78L408.32 497.78z" fill="#d3b714"></path><path d="M906.21 49.24L924.71 49.24L924.71 67.74L906.21 67.74z" fill="#d3b714"></path><path d="M958.47 544.88L969.96 544.88L969.96 552.15L958.47 552.15z" fill="#d3b714"></path><path d="M1877.4 520.9L1891.61 520.9L1891.61 535.11L1877.4 535.11z" stroke="#d3b714"></path><path d="M852.82 26.1L883.54 26.1L883.54 56.82L852.82 56.82z" stroke="#e73635"></path><path d="M1150.64 38.84 a45.89 45.89 0 1 0 91.78 0 a45.89 45.89 0 1 0 -91.78 0z" fill="#d3b714"></path><path d="M480.15 340.92 a39.31 39.31 0 1 0 78.62 0 a39.31 39.31 0 1 0 -78.62 0z" fill="#e73635"></path><path d="M1615.25 241.86a15.5 15.5 0 1 0-27.18-14.91z" stroke="#e73635"></path><path d="M34.94 412.97L87.18 412.97L87.18 416.41L34.94 416.41z" fill="#037b0b"></path><path d="M588.32 284.99a35.29 35.29 0 1 0 55.36 43.78z" stroke="#e73635"></path><path d="M876.69 93.88L923.8 93.88L923.8 100.08L876.69 100.08z" stroke="#037b0b"></path><path d="M1032.02 62.08L1061.54 62.08L1061.54 117.59L1032.02 117.59z" fill="#d3b714"></path><path d="M1573.81 538.3a41.04 41.04 0 1 0-78.02-25.48z" fill="#037b0b"></path><path d="M1804.42 502.48 a30.9 30.9 0 1 0 61.8 0 a30.9 30.9 0 1 0 -61.8 0z" stroke="#037b0b"></path><path d="M98.01 326.15L118.45 326.15L118.45 362.81L98.01 362.81z" fill="#d3b714"></path><path d="M311.05 9.24L321.6 9.24L321.6 19.79L311.05 19.79z" stroke="#e73635"></path><path d="M396.92 532.25L437.81 532.25L437.81 573.14L396.92 573.14z" stroke="#d3b714"></path><path d="M532.88 307.3L554.63 307.3L554.63 329.05L532.88 329.05z" stroke="#e73635"></path><path d="M1466.88 42.55L1504.46 42.55L1504.46 75.16L1466.88 75.16z" fill="#e73635"></path><path d="M279.98 88.55 a8.42 8.42 0 1 0 16.84 0 a8.42 8.42 0 1 0 -16.84 0z" fill="#d3b714"></path><path d="M1673.33 187.36a29.49 29.49 0 1 0-54.45 22.66z" stroke="#d3b714"></path><path d="M192.01 202.21L236.03 202.21L236.03 246.23L192.01 246.23z" fill="#037b0b"></path><path d="M1081.2 449.63 a47.98 47.98 0 1 0 95.96 0 a47.98 47.98 0 1 0 -95.96 0z" fill="#037b0b"></path><path d="M393.7 120.3L396.81 120.3L396.81 153.63L393.7 153.63z" fill="#e73635"></path><path d="M1894.73 143.91L1897.26 143.91L1897.26 184.89L1894.73 184.89z" fill="#037b0b"></path><path d="M123.73 115.58 a8.42 8.42 0 1 0 16.84 0 a8.42 8.42 0 1 0 -16.84 0z" fill="#d3b714"></path><path d="M860.93 33.23L887.12 33.23L887.12 58.26L860.93 58.26z" fill="#e73635"></path><path d="M141.86 60.37 a18.6 18.6 0 1 0 37.2 0 a18.6 18.6 0 1 0 -37.2 0z" stroke="#037b0b"></path><path d="M1083.69 7.22L1124.55 7.22L1124.55 48.08L1083.69 48.08z" fill="#e73635"></path><path d="M1533.08 491.69L1570.32 491.69L1570.32 518.18L1533.08 518.18z" fill="#037b0b"></path><path d="M327.43 202.08 a32.27 32.27 0 1 0 64.54 0 a32.27 32.27 0 1 0 -64.54 0z" fill="#d3b714"></path><path d="M612.38 240.17L630.17 240.17L630.17 257.96L612.38 257.96z" stroke="#e73635"></path><path d="M369.97 121.35L402.13 121.35L402.13 153.51L369.97 153.51z" stroke="#d3b714"></path><path d="M1744.33 233.98L1763.78 233.98L1763.78 253.43L1744.33 253.43z" stroke="#d3b714"></path><path d="M227.96 133.89 a31.31 31.31 0 1 0 62.62 0 a31.31 31.31 0 1 0 -62.62 0z" fill="#d3b714"></path><path d="M1848.99 294.7a14.22 14.22 0 1 0-22.7-17.13z" fill="#d3b714"></path></g><defs><mask id="SvgjsMask1002"><rect width="1940" height="560" fill="#ffffff"></rect></mask></defs></svg>