<svg xmlns="http://www.w3.org/2000/svg" version="1.1" xmlns:xlink="http://www.w3.org/1999/xlink" xmlns:svgjs="http://svgjs.com/svgjs" width="3020" height="980" preserveAspectRatio="none" viewBox="0 0 3020 980"><g mask="url(&quot;#SvgjsMask1032&quot;)" fill="none"><rect width="3020" height="980" x="0" y="0" fill="rgba(5, 14, 24, 1)"></rect><path d="M740.68 623.8L813.04 623.8L813.04 696.16L740.68 696.16z" stroke="#037b0b"></path><path d="M2268.72 132.46L2269.47 132.46L2269.47 217.01L2268.72 217.01z" stroke="#e73635"></path><path d="M2644.61 565.63a48.85 48.85 0 1 0 61.72 75.73z" fill="#037b0b"></path><path d="M1898.3 535.13a10.07 10.07 0 1 0 20.1 1.18z" stroke="#d3b714"></path><path d="M1977.78 440.65 a79.81 79.81 0 1 0 159.62 0 a79.81 79.81 0 1 0 -159.62 0z" stroke="#e73635"></path><path d="M184.78 586.78 a96.03 96.03 0 1 0 192.06 0 a96.03 96.03 0 1 0 -192.06 0z" stroke="#037b0b"></path><path d="M460.24 521.81 a8.21 8.21 0 1 0 16.42 0 a8.21 8.21 0 1 0 -16.42 0z" stroke="#037b0b"></path><path d="M2867.88 129.76 a38.38 38.38 0 1 0 76.76 0 a38.38 38.38 0 1 0 -76.76 0z" fill="#037b0b"></path><path d="M2674.31 318.72L2722.91 318.72L2722.91 330.52L2674.31 330.52z" stroke="#d3b714"></path><path d="M1788.52 960.73L1821.44 960.73L1821.44 993.65L1788.52 993.65z" stroke="#d3b714"></path><path d="M2667.43 460.76L2734.41 460.76L2734.41 476.18L2667.43 476.18z" fill="rgba(19, 32, 180, 1)"></path><path d="M1514.51 843.92a68.5 68.5 0 1 0-56.12-124.98z" stroke="rgba(19, 32, 180, 1)"></path><path d="M2157.25 975.69a84.35 84.35 0 1 0 167.62-19.1z" stroke="#e73635"></path><path d="M117.12 77.4 a67.85 67.85 0 1 0 135.7 0 a67.85 67.85 0 1 0 -135.7 0z" stroke="rgba(19, 32, 180, 1)"></path><path d="M376.77 851.56a10.74 10.74 0 1 0 15.1-15.28z" fill="#037b0b"></path><path d="M117.71 492.11L181.55 492.11L181.55 503.95L117.71 503.95z" stroke="#e73635"></path><path d="M870.34 131.9 a33.66 33.66 0 1 0 67.32 0 a33.66 33.66 0 1 0 -67.32 0z" fill="#d3b714"></path><path d="M2695.59 162.09L2792.43 162.09L2792.43 258.93L2695.59 258.93z" fill="rgba(19, 32, 180, 1)"></path><path d="M874.54 856.42L927.84 856.42L927.84 915.31L874.54 915.31z" fill="#037b0b"></path><path d="M2943.74 85.73 a47 47 0 1 0 94 0 a47 47 0 1 0 -94 0z" stroke="#037b0b"></path><path d="M2783.88 623.84 a15 15 0 1 0 30 0 a15 15 0 1 0 -30 0z" stroke="#d3b714"></path><path d="M735.92 687.65 a94.28 94.28 0 1 0 188.56 0 a94.28 94.28 0 1 0 -188.56 0z" fill="#e73635"></path><path d="M2850.09 328.4L2933.13 328.4L2933.13 411.44L2850.09 411.44z" fill="#d3b714"></path><path d="M164.61 5.27L177.82 5.27L177.82 18.48L164.61 18.48z" fill="#037b0b"></path><path d="M2185.83 257.99a34.53 34.53 0 1 0-66.58-18.32z" stroke="rgba(19, 32, 180, 1)"></path><path d="M1275.82 577.37L1295.04 577.37L1295.04 636.04L1275.82 636.04z" stroke="rgba(19, 32, 180, 1)"></path><path d="M1983.29 343.08 a63.55 63.55 0 1 0 127.1 0 a63.55 63.55 0 1 0 -127.1 0z" fill="rgba(19, 32, 180, 1)"></path><path d="M465.64 220.84L498.45 220.84L498.45 253.65L465.64 253.65z" stroke="#d3b714"></path><path d="M1460.53 840.24L1477.41 840.24L1477.41 895.86L1460.53 895.86z" stroke="rgba(19, 32, 180, 1)"></path><path d="M2664.6 893.75L2710.33 893.75L2710.33 916.22L2664.6 916.22z" stroke="#037b0b"></path><path d="M974.98 682.35 a67.19 67.19 0 1 0 134.38 0 a67.19 67.19 0 1 0 -134.38 0z" stroke="#037b0b"></path><path d="M47.76 578.71L73.89 578.71L73.89 600.27L47.76 600.27z" fill="#e73635"></path><path d="M630.65 158.04L678.5 158.04L678.5 205.89L630.65 205.89z" stroke="#e73635"></path><path d="M2230.32 289.29L2313.59 289.29L2313.59 318.84L2230.32 318.84z" fill="#037b0b"></path><path d="M2961.51 475.96a4.33 4.33 0 1 0 6.79-5.37z" stroke="#d3b714"></path><path d="M212.14 581.93L307.31 581.93L307.31 677.1L212.14 677.1z" stroke="rgba(19, 32, 180, 1)"></path><path d="M121.07 322.88L196.32 322.88L196.32 398.13L121.07 398.13z" stroke="#d3b714"></path><path d="M473.25 183.03L532.97 183.03L532.97 237.49L473.25 237.49z" fill="#d3b714"></path><path d="M85.23 541.99L113.58 541.99L113.58 570.34L85.23 570.34z" stroke="#d3b714"></path></g><defs><mask id="SvgjsMask1032"><rect width="3020" height="980" fill="#ffffff"></rect></mask></defs></svg>