<svg id="visual" viewBox="0 0 2900 1024" width="2900" height="1024" xmlns="http://www.w3.org/2000/svg" xmlns:xlink="http://www.w3.org/1999/xlink" version="1.1"><g stroke-width="1" stroke-linejoin="bevel"><path d="M1496.3 555.1L1547.3 375.6L1450.3 427.9Z" fill="#297ea6" stroke="#297ea6"></path><path d="M1496.3 555.1L1710.9 500.9L1547.3 375.6Z" fill="#15384f" stroke="#15384f"></path><path d="M1710.9 500.9L1647.9 303.6L1547.3 375.6Z" fill="#205a7a" stroke="#205a7a"></path><path d="M1387.7 277.6L1325.7 350.9L1450.3 427.9Z" fill="#00101c" stroke="#00101c"></path><path d="M1496.3 555.1L1716.9 560.1L1710.9 500.9Z" fill="#00101c" stroke="#00101c"></path><path d="M1387.7 277.6L1450.3 427.9L1547.3 375.6Z" fill="#1d4e6b" stroke="#1d4e6b"></path><path d="M1450.3 427.9L1387.7 660.1L1496.3 555.1Z" fill="#00101c" stroke="#00101c"></path><path d="M1280.1 642.1L1387.7 660.1L1450.3 427.9Z" fill="#1d4e6b" stroke="#1d4e6b"></path><path d="M1496.3 555.1L1700.9 763.4L1716.9 560.1Z" fill="#297ea6" stroke="#297ea6"></path><path d="M1485.3 183.3L1387.7 277.6L1547.3 375.6Z" fill="#081a28" stroke="#081a28"></path><path d="M1716.9 560.1L1778.6 460.9L1710.9 500.9Z" fill="#246688" stroke="#246688"></path><path d="M1710.9 500.9L1778.6 460.9L1647.9 303.6Z" fill="#15384f" stroke="#15384f"></path><path d="M1647.9 303.6L1485.3 183.3L1547.3 375.6Z" fill="#205a7a" stroke="#205a7a"></path><path d="M1325.7 350.9L1280.1 642.1L1450.3 427.9Z" fill="#205a7a" stroke="#205a7a"></path><path d="M1280.1 642.1L1454.7 787.4L1387.7 660.1Z" fill="#0c2435" stroke="#0c2435"></path><path d="M1387.7 660.1L1454.7 787.4L1496.3 555.1Z" fill="#112e42" stroke="#112e42"></path><path d="M1387.7 277.6L1250.1 303.6L1325.7 350.9Z" fill="#1d4e6b" stroke="#1d4e6b"></path><path d="M1325.7 350.9L1195.1 401.9L1280.1 642.1Z" fill="#19435d" stroke="#19435d"></path><path d="M1309.7 182.3L1250.1 303.6L1387.7 277.6Z" fill="#0c2435" stroke="#0c2435"></path><path d="M1775.6 225.6L1628.9 146.3L1647.9 303.6Z" fill="#205a7a" stroke="#205a7a"></path><path d="M1647.9 303.6L1628.9 146.3L1485.3 183.3Z" fill="#205a7a" stroke="#205a7a"></path><path d="M1549.3 818.4L1700.9 763.4L1496.3 555.1Z" fill="#205a7a" stroke="#205a7a"></path><path d="M1716.9 560.1L1917.6 534.1L1778.6 460.9Z" fill="#205a7a" stroke="#205a7a"></path><path d="M1778.6 460.9L1775.6 225.6L1647.9 303.6Z" fill="#0c2435" stroke="#0c2435"></path><path d="M1250.1 303.6L1195.1 401.9L1325.7 350.9Z" fill="#15384f" stroke="#15384f"></path><path d="M1454.7 787.4L1549.3 818.4L1496.3 555.1Z" fill="#297ea6" stroke="#297ea6"></path><path d="M1485.3 183.3L1309.7 182.3L1387.7 277.6Z" fill="#00101c" stroke="#00101c"></path><path d="M1250.1 303.6L983.4 252.6L1195.1 401.9Z" fill="#1d4e6b" stroke="#1d4e6b"></path><path d="M1447.7 0L1309.7 182.3L1485.3 183.3Z" fill="#112e42" stroke="#112e42"></path><path d="M1700.9 763.4L1862.6 652.4L1716.9 560.1Z" fill="#246688" stroke="#246688"></path><path d="M1778.6 460.9L1923.2 344.6L1775.6 225.6Z" fill="#15384f" stroke="#15384f"></path><path d="M1549.3 818.4L1692.9 822.7L1700.9 763.4Z" fill="#277297" stroke="#277297"></path><path d="M1700.9 763.4L1756.6 855.7L1862.6 652.4Z" fill="#0c2435" stroke="#0c2435"></path><path d="M1862.6 652.4L1917.6 534.1L1716.9 560.1Z" fill="#19435d" stroke="#19435d"></path><path d="M1923.2 344.6L1779.6 150.3L1775.6 225.6Z" fill="#205a7a" stroke="#205a7a"></path><path d="M1775.6 225.6L1779.6 150.3L1628.9 146.3Z" fill="#112e42" stroke="#112e42"></path><path d="M1917.6 534.1L1923.2 344.6L1778.6 460.9Z" fill="#0c2435" stroke="#0c2435"></path><path d="M1280.1 642.1L1413.7 895.7L1454.7 787.4Z" fill="#15384f" stroke="#15384f"></path><path d="M1454.7 787.4L1413.7 895.7L1549.3 818.4Z" fill="#00101c" stroke="#00101c"></path><path d="M1611.3 923.7L1756.6 855.7L1692.9 822.7Z" fill="#1d4e6b" stroke="#1d4e6b"></path><path d="M1611.3 923.7L1692.9 822.7L1549.3 818.4Z" fill="#081a28" stroke="#081a28"></path><path d="M1692.9 822.7L1756.6 855.7L1700.9 763.4Z" fill="#0c2435" stroke="#0c2435"></path><path d="M1413.7 895.7L1611.3 923.7L1549.3 818.4Z" fill="#1d4e6b" stroke="#1d4e6b"></path><path d="M1647.9 0L1467.3 0L1628.9 146.3Z" fill="#297ea6" stroke="#297ea6"></path><path d="M1628.9 146.3L1467.3 0L1485.3 183.3Z" fill="#19435d" stroke="#19435d"></path><path d="M1467.3 0L1447.7 0L1485.3 183.3Z" fill="#112e42" stroke="#112e42"></path><path d="M1760.6 0L1647.9 0L1628.9 146.3Z" fill="#277297" stroke="#277297"></path><path d="M1035.4 608.1L1141.1 753.4L1280.1 642.1Z" fill="#246688" stroke="#246688"></path><path d="M1280.1 642.1L1141.1 801.7L1413.7 895.7Z" fill="#1d4e6b" stroke="#1d4e6b"></path><path d="M1254.1 0L1196.1 93.3L1309.7 182.3Z" fill="#00101c" stroke="#00101c"></path><path d="M1309.7 182.3L1196.1 93.3L1250.1 303.6Z" fill="#0c2435" stroke="#0c2435"></path><path d="M1195.1 401.9L1035.4 608.1L1280.1 642.1Z" fill="#15384f" stroke="#15384f"></path><path d="M1917.6 534.1L2038.2 370.9L1923.2 344.6Z" fill="#277297" stroke="#277297"></path><path d="M1923.2 344.6L2060.2 135.3L1779.6 150.3Z" fill="#15384f" stroke="#15384f"></path><path d="M1779.6 150.3L1760.6 0L1628.9 146.3Z" fill="#112e42" stroke="#112e42"></path><path d="M2069.8 519.1L2038.2 370.9L1917.6 534.1Z" fill="#19435d" stroke="#19435d"></path><path d="M2065.2 543.1L1917.6 534.1L1862.6 652.4Z" fill="#277297" stroke="#277297"></path><path d="M1141.1 753.4L1141.1 801.7L1280.1 642.1Z" fill="#0c2435" stroke="#0c2435"></path><path d="M1008.4 511.9L1035.4 608.1L1195.1 401.9Z" fill="#112e42" stroke="#112e42"></path><path d="M1141.1 753.4L1006.4 735.4L1141.1 801.7Z" fill="#205a7a" stroke="#205a7a"></path><path d="M2034.2 0L1760.6 0L1779.6 150.3Z" fill="#277297" stroke="#277297"></path><path d="M983.4 252.6L1008.4 511.9L1195.1 401.9Z" fill="#297ea6" stroke="#297ea6"></path><path d="M2043.2 773.4L2065.2 543.1L1862.6 652.4Z" fill="#081a28" stroke="#081a28"></path><path d="M2065.2 543.1L2069.8 519.1L1917.6 534.1Z" fill="#246688" stroke="#246688"></path><path d="M1447.7 0L1254.1 0L1309.7 182.3Z" fill="#297ea6" stroke="#297ea6"></path><path d="M1413.7 895.7L1511.3 1024L1611.3 923.7Z" fill="#15384f" stroke="#15384f"></path><path d="M1611.3 923.7L1678.9 1024L1756.6 855.7Z" fill="#297ea6" stroke="#297ea6"></path><path d="M1357.7 1024L1511.3 1024L1413.7 895.7Z" fill="#277297" stroke="#277297"></path><path d="M1254.1 0L1122.4 82.3L1196.1 93.3Z" fill="#0c2435" stroke="#0c2435"></path><path d="M1196.1 93.3L1122.4 82.3L1250.1 303.6Z" fill="#297ea6" stroke="#297ea6"></path><path d="M1511.3 1024L1678.9 1024L1611.3 923.7Z" fill="#081a28" stroke="#081a28"></path><path d="M1756.6 855.7L1994.2 818.7L1862.6 652.4Z" fill="#297ea6" stroke="#297ea6"></path><path d="M1880.6 1024L1994.2 818.7L1756.6 855.7Z" fill="#00101c" stroke="#00101c"></path><path d="M1257.1 1024L1357.7 1024L1413.7 895.7Z" fill="#297ea6" stroke="#297ea6"></path><path d="M1035.4 608.1L1006.4 735.4L1141.1 753.4Z" fill="#297ea6" stroke="#297ea6"></path><path d="M1141.1 801.7L1257.1 1024L1413.7 895.7Z" fill="#0c2435" stroke="#0c2435"></path><path d="M904.8 761.4L1006.4 735.4L1035.4 608.1Z" fill="#0c2435" stroke="#0c2435"></path><path d="M1994.2 818.7L2043.2 773.4L1862.6 652.4Z" fill="#15384f" stroke="#15384f"></path><path d="M2294.5 365.6L2164.8 373.9L2322.5 606.1Z" fill="#081a28" stroke="#081a28"></path><path d="M1122.4 82.3L983.4 252.6L1250.1 303.6Z" fill="#112e42" stroke="#112e42"></path><path d="M1008.4 511.9L916.8 501.1L1035.4 608.1Z" fill="#277297" stroke="#277297"></path><path d="M895.8 481.9L916.8 501.1L1008.4 511.9Z" fill="#15384f" stroke="#15384f"></path><path d="M1030.4 1024L1257.1 1024L1141.1 801.7Z" fill="#205a7a" stroke="#205a7a"></path><path d="M2166.8 232.3L2060.2 135.3L2038.2 370.9Z" fill="#246688" stroke="#246688"></path><path d="M2038.2 370.9L2060.2 135.3L1923.2 344.6Z" fill="#112e42" stroke="#112e42"></path><path d="M2294.5 365.6L2322.5 606.1L2309.5 370.9Z" fill="#0c2435" stroke="#0c2435"></path><path d="M2069.8 519.1L2164.8 373.9L2038.2 370.9Z" fill="#277297" stroke="#277297"></path><path d="M983.4 252.6L895.8 481.9L1008.4 511.9Z" fill="#277297" stroke="#277297"></path><path d="M799.2 589.1L904.8 761.4L1035.4 608.1Z" fill="#112e42" stroke="#112e42"></path><path d="M1994.2 818.7L2090.8 802.4L2043.2 773.4Z" fill="#277297" stroke="#277297"></path><path d="M2043.2 773.4L2090.8 802.4L2065.2 543.1Z" fill="#00101c" stroke="#00101c"></path><path d="M2066.8 1024L2090.8 802.4L1994.2 818.7Z" fill="#081a28" stroke="#081a28"></path><path d="M1678.9 1024L1880.6 1024L1756.6 855.7Z" fill="#277297" stroke="#277297"></path><path d="M1028.4 0L966.8 118.3L1122.4 82.3Z" fill="#0c2435" stroke="#0c2435"></path><path d="M1122.4 82.3L966.8 118.3L983.4 252.6Z" fill="#081a28" stroke="#081a28"></path><path d="M983.4 252.6L763.2 351.9L895.8 481.9Z" fill="#297ea6" stroke="#297ea6"></path><path d="M2164.8 373.9L2166.8 232.3L2038.2 370.9Z" fill="#081a28" stroke="#081a28"></path><path d="M904.8 761.4L1003.4 895.7L1006.4 735.4Z" fill="#246688" stroke="#246688"></path><path d="M1006.4 735.4L1003.4 895.7L1141.1 801.7Z" fill="#19435d" stroke="#19435d"></path><path d="M2060.2 135.3L2034.2 0L1779.6 150.3Z" fill="#00101c" stroke="#00101c"></path><path d="M2056.8 0L2034.2 0L2060.2 135.3Z" fill="#15384f" stroke="#15384f"></path><path d="M1254.1 0L1028.4 0L1122.4 82.3Z" fill="#246688" stroke="#246688"></path><path d="M799.2 589.1L1035.4 608.1L916.8 501.1Z" fill="#297ea6" stroke="#297ea6"></path><path d="M2240.5 82.3L2056.8 0L2060.2 135.3Z" fill="#205a7a" stroke="#205a7a"></path><path d="M785.2 98.3L878.8 206.6L966.8 118.3Z" fill="#205a7a" stroke="#205a7a"></path><path d="M966.8 118.3L878.8 206.6L983.4 252.6Z" fill="#246688" stroke="#246688"></path><path d="M895.8 481.9L799.2 589.1L916.8 501.1Z" fill="#19435d" stroke="#19435d"></path><path d="M2294.5 365.6L2202.8 204.6L2166.8 232.3Z" fill="#246688" stroke="#246688"></path><path d="M2166.8 232.3L2202.8 204.6L2060.2 135.3Z" fill="#246688" stroke="#246688"></path><path d="M2294.5 365.6L2166.8 232.3L2164.8 373.9Z" fill="#19435d" stroke="#19435d"></path><path d="M763.2 351.9L799.2 589.1L895.8 481.9Z" fill="#0c2435" stroke="#0c2435"></path><path d="M1880.6 1024L2035.2 1024L1994.2 818.7Z" fill="#19435d" stroke="#19435d"></path><path d="M823.2 882.7L1003.4 895.7L904.8 761.4Z" fill="#0c2435" stroke="#0c2435"></path><path d="M859.8 964.7L1030.4 1024L1003.4 895.7Z" fill="#277297" stroke="#277297"></path><path d="M1003.4 895.7L1030.4 1024L1141.1 801.7Z" fill="#277297" stroke="#277297"></path><path d="M2069.8 519.1L2065.2 543.1L2322.5 606.1Z" fill="#1d4e6b" stroke="#1d4e6b"></path><path d="M2164.8 373.9L2069.8 519.1L2322.5 606.1Z" fill="#297ea6" stroke="#297ea6"></path><path d="M2035.2 1024L2066.8 1024L1994.2 818.7Z" fill="#0c2435" stroke="#0c2435"></path><path d="M2304.5 655.4L2065.2 543.1L2090.8 802.4Z" fill="#081a28" stroke="#081a28"></path><path d="M2294.5 365.6L2443.1 266.6L2202.8 204.6Z" fill="#277297" stroke="#277297"></path><path d="M626.5 244.6L763.2 351.9L878.8 206.6Z" fill="#15384f" stroke="#15384f"></path><path d="M878.8 206.6L763.2 351.9L983.4 252.6Z" fill="#00101c" stroke="#00101c"></path><path d="M1028.4 0L906.8 0L966.8 118.3Z" fill="#112e42" stroke="#112e42"></path><path d="M2066.8 1024L2186.8 915.7L2090.8 802.4Z" fill="#00101c" stroke="#00101c"></path><path d="M2186.8 915.7L2304.5 655.4L2090.8 802.4Z" fill="#112e42" stroke="#112e42"></path><path d="M2304.5 655.4L2322.5 606.1L2065.2 543.1Z" fill="#246688" stroke="#246688"></path><path d="M2455.1 132.3L2240.5 82.3L2202.8 204.6Z" fill="#297ea6" stroke="#297ea6"></path><path d="M2202.8 204.6L2240.5 82.3L2060.2 135.3Z" fill="#15384f" stroke="#15384f"></path><path d="M785.2 812.4L823.2 882.7L904.8 761.4Z" fill="#00101c" stroke="#00101c"></path><path d="M785.2 812.4L904.8 761.4L799.2 589.1Z" fill="#0c2435" stroke="#0c2435"></path><path d="M666.5 676.4L785.2 812.4L799.2 589.1Z" fill="#00101c" stroke="#00101c"></path><path d="M2186.8 915.7L2412.1 755.4L2304.5 655.4Z" fill="#19435d" stroke="#19435d"></path><path d="M2483.1 670.1L2414.1 468.9L2322.5 606.1Z" fill="#297ea6" stroke="#297ea6"></path><path d="M2066.8 1024L2218.5 950.7L2186.8 915.7Z" fill="#00101c" stroke="#00101c"></path><path d="M906.8 0L785.2 98.3L966.8 118.3Z" fill="#19435d" stroke="#19435d"></path><path d="M857.8 1024L859.8 964.7L714.2 1024Z" fill="#19435d" stroke="#19435d"></path><path d="M823.2 882.7L859.8 964.7L1003.4 895.7Z" fill="#112e42" stroke="#112e42"></path><path d="M626.5 244.6L694.2 349.6L763.2 351.9Z" fill="#0c2435" stroke="#0c2435"></path><path d="M763.2 351.9L593.5 502.1L799.2 589.1Z" fill="#205a7a" stroke="#205a7a"></path><path d="M2424.1 0L2244.5 0L2240.5 82.3Z" fill="#19435d" stroke="#19435d"></path><path d="M2240.5 82.3L2244.5 0L2056.8 0Z" fill="#15384f" stroke="#15384f"></path><path d="M714.2 1024L859.8 964.7L823.2 882.7Z" fill="#297ea6" stroke="#297ea6"></path><path d="M859.8 964.7L857.8 1024L1030.4 1024Z" fill="#246688" stroke="#246688"></path><path d="M2322.5 606.1L2414.1 468.9L2309.5 370.9Z" fill="#15384f" stroke="#15384f"></path><path d="M2309.5 370.9L2443.1 266.6L2294.5 365.6Z" fill="#205a7a" stroke="#205a7a"></path><path d="M2483.1 670.1L2322.5 606.1L2304.5 655.4Z" fill="#277297" stroke="#277297"></path><path d="M589.5 514.9L666.5 676.4L799.2 589.1Z" fill="#081a28" stroke="#081a28"></path><path d="M785.2 812.4L714.2 1024L823.2 882.7Z" fill="#205a7a" stroke="#205a7a"></path><path d="M2428.1 896.7L2412.1 755.4L2186.8 915.7Z" fill="#246688" stroke="#246688"></path><path d="M2414.1 468.9L2443.1 266.6L2309.5 370.9Z" fill="#1d4e6b" stroke="#1d4e6b"></path><path d="M2517.7 360.9L2443.1 266.6L2414.1 468.9Z" fill="#112e42" stroke="#112e42"></path><path d="M785.2 98.3L626.5 244.6L878.8 206.6Z" fill="#277297" stroke="#277297"></path><path d="M694.2 349.6L593.5 502.1L763.2 351.9Z" fill="#0c2435" stroke="#0c2435"></path><path d="M503.9 410.9L593.5 502.1L694.2 349.6Z" fill="#205a7a" stroke="#205a7a"></path><path d="M503.9 410.9L589.5 514.9L593.5 502.1Z" fill="#081a28" stroke="#081a28"></path><path d="M593.5 502.1L589.5 514.9L799.2 589.1Z" fill="#15384f" stroke="#15384f"></path><path d="M2412.1 755.4L2483.1 670.1L2304.5 655.4Z" fill="#297ea6" stroke="#297ea6"></path><path d="M906.8 0L683.2 0L785.2 98.3Z" fill="#297ea6" stroke="#297ea6"></path><path d="M785.2 98.3L566.5 172.3L626.5 244.6Z" fill="#1d4e6b" stroke="#1d4e6b"></path><path d="M2591.7 222.6L2455.1 132.3L2443.1 266.6Z" fill="#0c2435" stroke="#0c2435"></path><path d="M2443.1 266.6L2455.1 132.3L2202.8 204.6Z" fill="#205a7a" stroke="#205a7a"></path><path d="M2412.1 755.4L2551.7 858.7L2483.1 670.1Z" fill="#205a7a" stroke="#205a7a"></path><path d="M2218.5 950.7L2428.1 896.7L2186.8 915.7Z" fill="#00101c" stroke="#00101c"></path><path d="M2066.8 1024L2347.5 1024L2218.5 950.7Z" fill="#0c2435" stroke="#0c2435"></path><path d="M2688.4 502.9L2517.7 360.9L2414.1 468.9Z" fill="#297ea6" stroke="#297ea6"></path><path d="M2347.5 1024L2428.1 896.7L2218.5 950.7Z" fill="#112e42" stroke="#112e42"></path><path d="M714.2 1024L785.2 812.4L570.5 938.7Z" fill="#081a28" stroke="#081a28"></path><path d="M662.5 1024L714.2 1024L570.5 938.7Z" fill="#15384f" stroke="#15384f"></path><path d="M2576.7 96.3L2424.1 0L2455.1 132.3Z" fill="#112e42" stroke="#112e42"></path><path d="M2455.1 132.3L2424.1 0L2240.5 82.3Z" fill="#277297" stroke="#277297"></path><path d="M683.2 0L566.5 172.3L785.2 98.3Z" fill="#19435d" stroke="#19435d"></path><path d="M626.5 244.6L503.9 410.9L694.2 349.6Z" fill="#246688" stroke="#246688"></path><path d="M392.9 340.6L503.9 410.9L413.9 214.3Z" fill="#081a28" stroke="#081a28"></path><path d="M570.5 938.7L785.2 812.4L666.5 676.4Z" fill="#00101c" stroke="#00101c"></path><path d="M570.5 938.7L666.5 676.4L492.9 909.7Z" fill="#246688" stroke="#246688"></path><path d="M2347.5 1024L2419.1 1024L2428.1 896.7Z" fill="#277297" stroke="#277297"></path><path d="M2551.7 858.7L2580.7 644.1L2483.1 670.1Z" fill="#1d4e6b" stroke="#1d4e6b"></path><path d="M2483.1 670.1L2580.7 644.1L2414.1 468.9Z" fill="#081a28" stroke="#081a28"></path><path d="M2551.7 858.7L2412.1 755.4L2428.1 896.7Z" fill="#246688" stroke="#246688"></path><path d="M445.9 571.1L666.5 676.4L589.5 514.9Z" fill="#1d4e6b" stroke="#1d4e6b"></path><path d="M2517.7 360.9L2591.7 222.6L2443.1 266.6Z" fill="#081a28" stroke="#081a28"></path><path d="M2695.4 373.6L2591.7 222.6L2517.7 360.9Z" fill="#246688" stroke="#246688"></path><path d="M683.2 0L553.5 0L566.5 172.3Z" fill="#0c2435" stroke="#0c2435"></path><path d="M392.9 340.6L390.3 372.9L503.9 410.9Z" fill="#0c2435" stroke="#0c2435"></path><path d="M2596.7 1024L2551.7 858.7L2428.1 896.7Z" fill="#112e42" stroke="#112e42"></path><path d="M390.3 372.9L445.9 571.1L503.9 410.9Z" fill="#00101c" stroke="#00101c"></path><path d="M503.9 410.9L445.9 571.1L589.5 514.9Z" fill="#0c2435" stroke="#0c2435"></path><path d="M2591.7 222.6L2576.7 96.3L2455.1 132.3Z" fill="#297ea6" stroke="#297ea6"></path><path d="M430.9 748.4L492.9 909.7L666.5 676.4Z" fill="#15384f" stroke="#15384f"></path><path d="M570.5 938.7L491.9 1024L662.5 1024Z" fill="#277297" stroke="#277297"></path><path d="M445.9 571.1L430.9 748.4L666.5 676.4Z" fill="#112e42" stroke="#112e42"></path><path d="M503.9 410.9L626.5 244.6L413.9 214.3Z" fill="#00101c" stroke="#00101c"></path><path d="M445.9 571.1L347.3 611.1L430.9 748.4Z" fill="#112e42" stroke="#112e42"></path><path d="M413.9 214.3L626.5 244.6L566.5 172.3Z" fill="#297ea6" stroke="#297ea6"></path><path d="M410.9 0L413.9 214.3L566.5 172.3Z" fill="#081a28" stroke="#081a28"></path><path d="M2772.4 594.1L2688.4 502.9L2580.7 644.1Z" fill="#00101c" stroke="#00101c"></path><path d="M2580.7 644.1L2688.4 502.9L2414.1 468.9Z" fill="#19435d" stroke="#19435d"></path><path d="M2832.4 103.3L2597.7 0L2576.7 96.3Z" fill="#297ea6" stroke="#297ea6"></path><path d="M2832.4 103.3L2576.7 96.3L2591.7 222.6Z" fill="#205a7a" stroke="#205a7a"></path><path d="M2576.7 96.3L2597.7 0L2424.1 0Z" fill="#1d4e6b" stroke="#1d4e6b"></path><path d="M2688.4 502.9L2695.4 373.6L2517.7 360.9Z" fill="#246688" stroke="#246688"></path><path d="M2769.4 850.7L2672.7 761.4L2551.7 858.7Z" fill="#1d4e6b" stroke="#1d4e6b"></path><path d="M2551.7 858.7L2672.7 761.4L2580.7 644.1Z" fill="#297ea6" stroke="#297ea6"></path><path d="M298.3 1024L491.9 1024L492.9 909.7Z" fill="#246688" stroke="#246688"></path><path d="M492.9 909.7L491.9 1024L570.5 938.7Z" fill="#00101c" stroke="#00101c"></path><path d="M390.3 372.9L347.3 611.1L445.9 571.1Z" fill="#081a28" stroke="#081a28"></path><path d="M430.9 748.4L313.3 845.7L492.9 909.7Z" fill="#297ea6" stroke="#297ea6"></path><path d="M180.6 559.1L347.3 611.1L390.3 372.9Z" fill="#081a28" stroke="#081a28"></path><path d="M300.3 280.6L390.3 372.9L392.9 340.6Z" fill="#19435d" stroke="#19435d"></path><path d="M2419.1 1024L2596.7 1024L2428.1 896.7Z" fill="#246688" stroke="#246688"></path><path d="M2769.4 850.7L2711.4 696.4L2672.7 761.4Z" fill="#205a7a" stroke="#205a7a"></path><path d="M2672.7 761.4L2711.4 696.4L2580.7 644.1Z" fill="#1d4e6b" stroke="#1d4e6b"></path><path d="M2688.4 502.9L2900 525.1L2695.4 373.6Z" fill="#19435d" stroke="#19435d"></path><path d="M410.9 0L356.3 230.3L413.9 214.3Z" fill="#205a7a" stroke="#205a7a"></path><path d="M413.9 214.3L356.3 230.3L392.9 340.6Z" fill="#246688" stroke="#246688"></path><path d="M553.5 0L410.9 0L566.5 172.3Z" fill="#297ea6" stroke="#297ea6"></path><path d="M2900 813.4L2772.4 594.1L2711.4 696.4Z" fill="#00101c" stroke="#00101c"></path><path d="M2711.4 696.4L2772.4 594.1L2580.7 644.1Z" fill="#112e42" stroke="#112e42"></path><path d="M2695.4 373.6L2832.4 103.3L2591.7 222.6Z" fill="#1d4e6b" stroke="#1d4e6b"></path><path d="M207.6 698.4L317.3 731.4L347.3 611.1Z" fill="#112e42" stroke="#112e42"></path><path d="M347.3 611.1L317.3 731.4L430.9 748.4Z" fill="#15384f" stroke="#15384f"></path><path d="M207.6 0L300.3 280.6L356.3 230.3Z" fill="#112e42" stroke="#112e42"></path><path d="M356.3 230.3L300.3 280.6L392.9 340.6Z" fill="#00101c" stroke="#00101c"></path><path d="M207.6 698.4L313.3 845.7L317.3 731.4Z" fill="#1d4e6b" stroke="#1d4e6b"></path><path d="M317.3 731.4L313.3 845.7L430.9 748.4Z" fill="#246688" stroke="#246688"></path><path d="M2596.7 1024L2769.4 850.7L2551.7 858.7Z" fill="#19435d" stroke="#19435d"></path><path d="M410.9 0L273.3 0L356.3 230.3Z" fill="#00101c" stroke="#00101c"></path><path d="M180.6 559.1L207.6 698.4L347.3 611.1Z" fill="#277297" stroke="#277297"></path><path d="M180.6 559.1L390.3 372.9L99.6 395.9Z" fill="#19435d" stroke="#19435d"></path><path d="M2900 346.6L2832.4 103.3L2695.4 373.6Z" fill="#277297" stroke="#277297"></path><path d="M2900 525.1L2688.4 502.9L2772.4 594.1Z" fill="#112e42" stroke="#112e42"></path><path d="M313.3 845.7L298.3 1024L492.9 909.7Z" fill="#081a28" stroke="#081a28"></path><path d="M218.6 904.7L298.3 1024L313.3 845.7Z" fill="#00101c" stroke="#00101c"></path><path d="M99.6 395.9L390.3 372.9L300.3 280.6Z" fill="#1d4e6b" stroke="#1d4e6b"></path><path d="M2900 813.4L2900 525.1L2772.4 594.1Z" fill="#0c2435" stroke="#0c2435"></path><path d="M2900 525.1L2900 360.9L2695.4 373.6Z" fill="#00101c" stroke="#00101c"></path><path d="M2900 360.9L2900 346.6L2695.4 373.6Z" fill="#081a28" stroke="#081a28"></path><path d="M2900 73.3L2828.4 0L2832.4 103.3Z" fill="#081a28" stroke="#081a28"></path><path d="M2832.4 103.3L2828.4 0L2597.7 0Z" fill="#205a7a" stroke="#205a7a"></path><path d="M199.6 1024L218.6 904.7L0 1024Z" fill="#277297" stroke="#277297"></path><path d="M207.6 698.4L218.6 904.7L313.3 845.7Z" fill="#15384f" stroke="#15384f"></path><path d="M2596.7 1024L2825.4 1024L2769.4 850.7Z" fill="#15384f" stroke="#15384f"></path><path d="M2769.4 850.7L2900 813.4L2711.4 696.4Z" fill="#297ea6" stroke="#297ea6"></path><path d="M2900 853.7L2900 813.4L2769.4 850.7Z" fill="#00101c" stroke="#00101c"></path><path d="M273.3 0L207.6 0L356.3 230.3Z" fill="#1d4e6b" stroke="#1d4e6b"></path><path d="M2825.4 1024L2900 853.7L2769.4 850.7Z" fill="#15384f" stroke="#15384f"></path><path d="M2900 346.6L2900 73.3L2832.4 103.3Z" fill="#246688" stroke="#246688"></path><path d="M69.6 213.6L99.6 395.9L300.3 280.6Z" fill="#297ea6" stroke="#297ea6"></path><path d="M180.6 559.1L0 660.1L207.6 698.4Z" fill="#0c2435" stroke="#0c2435"></path><path d="M2900 73.3L2900 0L2828.4 0Z" fill="#246688" stroke="#246688"></path><path d="M0 862.7L218.6 904.7L207.6 698.4Z" fill="#081a28" stroke="#081a28"></path><path d="M218.6 904.7L199.6 1024L298.3 1024Z" fill="#19435d" stroke="#19435d"></path><path d="M2825.4 1024L2900 1024L2900 853.7Z" fill="#205a7a" stroke="#205a7a"></path><path d="M207.6 0L81.6 192.3L300.3 280.6Z" fill="#112e42" stroke="#112e42"></path><path d="M81.6 192.3L69.6 213.6L300.3 280.6Z" fill="#277297" stroke="#277297"></path><path d="M99.6 395.9L0 439.9L180.6 559.1Z" fill="#15384f" stroke="#15384f"></path><path d="M0 268.6L0 439.9L99.6 395.9Z" fill="#00101c" stroke="#00101c"></path><path d="M0 439.9L0 660.1L180.6 559.1Z" fill="#19435d" stroke="#19435d"></path><path d="M69.6 213.6L0 268.6L99.6 395.9Z" fill="#15384f" stroke="#15384f"></path><path d="M0 229.3L0 268.6L69.6 213.6Z" fill="#1d4e6b" stroke="#1d4e6b"></path><path d="M0 229.3L69.6 213.6L81.6 192.3Z" fill="#112e42" stroke="#112e42"></path><path d="M0 0L0 229.3L81.6 192.3Z" fill="#0c2435" stroke="#0c2435"></path><path d="M0 660.1L0 715.4L207.6 698.4Z" fill="#1d4e6b" stroke="#1d4e6b"></path><path d="M0 715.4L0 862.7L207.6 698.4Z" fill="#1d4e6b" stroke="#1d4e6b"></path><path d="M207.6 0L0 0L81.6 192.3Z" fill="#205a7a" stroke="#205a7a"></path><path d="M0 862.7L0 1024L218.6 904.7Z" fill="#00101c" stroke="#00101c"></path></g></svg>